<svg width="800" height="791" viewBox="0 0 800 791" fill="none" xmlns="http://www.w3.org/2000/svg">
<g clip-path="url(#clip0_94_5422)">
<path d="M596.688 187.477H592.353V68.7285C592.353 59.703 590.575 50.7658 587.122 42.4273C583.668 34.0888 578.605 26.5122 572.223 20.1301C565.841 13.7481 558.265 8.68561 549.926 5.23167C541.588 1.77773 532.65 8.54144e-06 523.625 1.67804e-10H272.04C253.813 -4.02496e-05 236.331 7.24093 223.442 20.13C210.553 33.019 203.312 50.5004 203.312 68.7283V720.193C203.312 738.421 210.553 755.902 223.442 768.791C236.331 781.68 253.812 788.921 272.04 788.921H523.625C541.852 788.921 559.334 781.68 572.223 768.791C585.112 755.902 592.353 738.421 592.353 720.193V272.004H596.688L596.688 187.477Z" fill="#E6E6E6"/>
<path d="M577.725 69.2081V719.714C577.724 733.327 572.316 746.382 562.691 756.008C553.065 765.634 540.01 771.042 526.397 771.042H273.605C259.992 771.041 246.937 765.634 237.311 756.008C227.685 746.382 222.278 733.327 222.277 719.714V69.2081C222.278 55.5951 227.685 42.5398 237.311 32.914C246.937 23.2881 259.992 17.8803 273.605 17.88H304.272C302.765 21.583 302.191 25.5995 302.601 29.5763C303.011 33.5531 304.391 37.3683 306.621 40.6862C308.852 44.0042 311.863 46.7233 315.391 48.6043C318.918 50.4853 322.854 51.4707 326.852 51.4736H470.982C474.98 51.4706 478.916 50.4853 482.443 48.6043C485.971 46.7232 488.982 44.0041 491.212 40.6862C493.443 37.3682 494.823 33.5531 495.233 29.5763C495.643 25.5995 495.069 21.583 493.562 17.88H526.397C540.01 17.8803 553.065 23.2881 562.691 32.9139C572.316 42.5398 577.724 55.5951 577.725 69.2081Z" fill="white"/>
<path d="M330.193 196.249H291.373C288.174 196.245 285.108 194.973 282.846 192.712C280.584 190.45 279.312 187.383 279.308 184.185V145.364C279.312 142.166 280.584 139.099 282.846 136.838C285.108 134.576 288.174 133.304 291.373 133.3H330.193C333.392 133.304 336.458 134.576 338.72 136.838C340.982 139.099 342.254 142.166 342.257 145.364V184.185C342.254 187.383 340.982 190.45 338.72 192.712C336.458 194.973 333.392 196.245 330.193 196.249Z" fill="#7362E9"/>
<path d="M419.411 196.249H380.591C377.392 196.245 374.326 194.973 372.064 192.712C369.802 190.45 368.53 187.383 368.527 184.185V145.364C368.53 142.166 369.802 139.099 372.064 136.838C374.326 134.576 377.392 133.304 380.591 133.3H419.411C422.61 133.304 425.676 134.576 427.938 136.838C430.2 139.099 431.472 142.166 431.476 145.364V184.185C431.472 187.383 430.2 190.45 427.938 192.712C425.676 194.973 422.61 196.245 419.411 196.249Z" fill="#7362E9"/>
<path d="M508.63 196.249H469.809C466.61 196.245 463.544 194.973 461.282 192.712C459.02 190.45 457.748 187.383 457.745 184.185V145.364C457.748 142.166 459.02 139.099 461.282 136.838C463.544 134.576 466.61 133.304 469.809 133.3H508.63C511.828 133.304 514.894 134.576 517.156 136.838C519.418 139.099 520.69 142.166 520.694 145.364V184.185C520.69 187.383 519.418 190.45 517.156 192.712C514.894 194.973 511.828 196.245 508.63 196.249Z" fill="#E6E6E6"/>
<path d="M330.193 295.446H291.373C288.174 295.442 285.108 294.17 282.846 291.909C280.584 289.647 279.312 286.58 279.308 283.382V244.561C279.312 241.363 280.584 238.296 282.846 236.034C285.108 233.773 288.174 232.501 291.373 232.497H330.193C333.392 232.501 336.458 233.773 338.72 236.034C340.982 238.296 342.254 241.363 342.257 244.561V283.382C342.254 286.58 340.982 289.647 338.72 291.908C336.458 294.17 333.392 295.442 330.193 295.446Z" fill="#E6E6E6"/>
<path d="M419.411 295.446H380.591C377.392 295.442 374.326 294.17 372.064 291.909C369.802 289.647 368.53 286.58 368.527 283.382V244.561C368.53 241.363 369.802 238.296 372.064 236.034C374.326 233.773 377.392 232.501 380.591 232.497H419.411C422.61 232.501 425.676 233.773 427.938 236.034C430.2 238.296 431.472 241.363 431.476 244.561V283.382C431.472 286.58 430.2 289.647 427.938 291.908C425.676 294.17 422.61 295.442 419.411 295.446Z" fill="#E6E6E6"/>
<path d="M508.63 295.446H469.809C466.61 295.442 463.544 294.17 461.282 291.909C459.02 289.647 457.748 286.58 457.745 283.382V244.561C457.748 241.363 459.02 238.296 461.282 236.034C463.544 233.773 466.61 232.501 469.809 232.497H508.63C511.828 232.501 514.894 233.773 517.156 236.034C519.418 238.296 520.69 241.363 520.694 244.561V283.382C520.69 286.58 519.418 289.647 517.156 291.908C514.894 294.17 511.828 295.442 508.63 295.446Z" fill="#E6E6E6"/>
<path d="M330.193 394.624H291.373C288.174 394.62 285.108 393.348 282.846 391.086C280.584 388.824 279.312 385.758 279.308 382.559V343.739C279.312 340.54 280.584 337.474 282.846 335.212C285.108 332.95 288.174 331.678 291.373 331.675H330.193C333.392 331.678 336.458 332.95 338.72 335.212C340.982 337.474 342.254 340.54 342.257 343.739V382.559C342.254 385.758 340.982 388.824 338.72 391.086C336.458 393.348 333.392 394.62 330.193 394.624Z" fill="#E6E6E6"/>
<path d="M419.411 394.624H380.591C377.392 394.62 374.326 393.348 372.064 391.086C369.802 388.824 368.53 385.758 368.527 382.559V343.739C368.53 340.54 369.802 337.474 372.064 335.212C374.326 332.95 377.392 331.678 380.591 331.675H419.411C422.61 331.678 425.676 332.95 427.938 335.212C430.2 337.474 431.472 340.54 431.476 343.739V382.559C431.472 385.758 430.2 388.824 427.938 391.086C425.676 393.348 422.61 394.62 419.411 394.624Z" fill="#E6E6E6"/>
<path d="M508.63 394.624H469.809C466.61 394.62 463.544 393.348 461.282 391.086C459.02 388.824 457.748 385.758 457.745 382.559V343.739C457.748 340.54 459.02 337.474 461.282 335.212C463.544 332.95 466.61 331.678 469.809 331.675H508.63C511.828 331.678 514.894 332.95 517.156 335.212C519.418 337.474 520.69 340.54 520.694 343.739V382.559C520.69 385.758 519.418 388.824 517.156 391.086C514.894 393.348 511.828 394.62 508.63 394.624Z" fill="#E6E6E6"/>
<path d="M330.193 493.821H291.373C288.174 493.817 285.108 492.545 282.846 490.283C280.584 488.022 279.312 484.955 279.308 481.757V442.936C279.312 439.738 280.584 436.671 282.846 434.409C285.108 432.148 288.174 430.876 291.373 430.872H330.193C333.392 430.876 336.458 432.148 338.72 434.409C340.982 436.671 342.254 439.738 342.257 442.936V481.757C342.254 484.955 340.982 488.022 338.72 490.283C336.458 492.545 333.392 493.817 330.193 493.821Z" fill="#E6E6E6"/>
<path d="M419.411 493.821H380.591C377.392 493.817 374.326 492.545 372.064 490.283C369.802 488.022 368.53 484.955 368.527 481.757V442.936C368.53 439.738 369.802 436.671 372.064 434.409C374.326 432.148 377.392 430.876 380.591 430.872H419.411C422.61 430.876 425.676 432.148 427.938 434.409C430.2 436.671 431.472 439.738 431.476 442.936V481.757C431.472 484.955 430.2 488.022 427.938 490.283C425.676 492.545 422.61 493.817 419.411 493.821Z" fill="#E6E6E6"/>
<path d="M508.63 493.821H469.809C466.61 493.817 463.544 492.545 461.282 490.283C459.02 488.022 457.748 484.955 457.745 481.757V442.936C457.748 439.738 459.02 436.671 461.282 434.409C463.544 432.148 466.61 430.876 469.809 430.872H508.63C511.828 430.876 514.894 432.148 517.156 434.409C519.418 436.671 520.69 439.738 520.694 442.936V481.757C520.69 484.955 519.418 488.022 517.156 490.283C514.894 492.545 511.828 493.817 508.63 493.821Z" fill="#E6E6E6"/>
<path d="M444.381 482.316H405.56C402.218 482.312 399.014 480.983 396.651 478.62C394.287 476.256 392.958 473.052 392.954 469.71V430.889C392.958 427.547 394.287 424.343 396.651 421.98C399.014 419.616 402.218 418.287 405.56 418.283H444.381C447.723 418.287 450.927 419.616 453.291 421.98C455.654 424.343 456.983 427.547 456.987 430.889V469.71C456.984 473.052 455.654 476.256 453.291 478.62C450.928 480.983 447.723 482.312 444.381 482.316Z" fill="#7362E9"/>
<path d="M260.7 582.497C262.168 581.766 263.457 580.723 264.478 579.441C265.498 578.159 266.225 576.668 266.608 575.074C266.99 573.481 267.018 571.822 266.69 570.217C266.362 568.611 265.686 567.096 264.709 565.78L273.092 483.817H254.976L248.313 563.85C246.211 565.637 244.837 568.133 244.452 570.865C244.067 573.598 244.698 576.377 246.225 578.675C247.751 580.974 250.068 582.632 252.736 583.336C255.404 584.041 258.238 583.742 260.7 582.497Z" fill="#FFB8B8"/>
<path d="M277.334 438.583C291.49 438.583 302.966 427.108 302.966 412.952C302.966 398.796 291.49 387.32 277.334 387.32C263.178 387.32 251.703 398.796 251.703 412.952C251.703 427.108 263.178 438.583 277.334 438.583Z" fill="#FFB8B8"/>
<path d="M282.16 531.549C281.134 531.549 280.137 531.212 279.32 530.59C278.504 529.968 277.915 529.096 277.642 528.106C275.589 520.645 270.246 508.031 261.763 490.611C259.849 486.673 258.789 482.375 258.652 477.999C258.516 473.622 259.307 469.267 260.972 465.218C262.638 461.168 265.141 457.517 268.316 454.503C271.492 451.489 275.27 449.181 279.4 447.729C283.315 446.347 287.467 445.764 291.611 446.015C295.755 446.265 299.806 447.344 303.526 449.188C307.245 451.032 310.557 453.603 313.265 456.75C315.973 459.896 318.023 463.554 319.293 467.506C325.869 488.121 325.551 510.203 325.109 518.74C325.055 519.768 324.664 520.749 323.998 521.534C323.332 522.319 322.427 522.865 321.421 523.086L283.167 531.44C282.837 531.513 282.499 531.549 282.16 531.549Z" fill="#CCCCCC"/>
<path d="M319.205 774.944L331.999 774.943L338.086 725.595L319.202 725.596L319.205 774.944Z" fill="#FFB8B8"/>
<path d="M356.674 786.823L316.464 786.824L316.463 771.289L341.137 771.288C343.177 771.288 345.198 771.689 347.082 772.47C348.967 773.251 350.68 774.395 352.123 775.837C353.565 777.28 354.71 778.993 355.491 780.877C356.272 782.762 356.673 784.782 356.674 786.823Z" fill="#2F2E41"/>
<path d="M191.271 758.362L202.482 764.525L231.592 724.215L215.045 715.118L191.271 758.362Z" fill="#FFB8B8"/>
<path d="M218.38 786.824L183.144 767.452L190.629 753.838L212.251 765.725C215.862 767.71 218.536 771.049 219.685 775.005C220.835 778.962 220.365 783.213 218.38 786.824Z" fill="#2F2E41"/>
<path d="M318.607 747.552C317.467 747.551 316.366 747.135 315.51 746.382C314.654 745.629 314.101 744.591 313.954 743.46L297.954 620.162C297.883 619.617 297.642 619.108 297.265 618.708C296.887 618.308 296.393 618.037 295.853 617.935C295.313 617.832 294.754 617.903 294.256 618.137C293.759 618.371 293.348 618.756 293.082 619.238L226.398 740.221C225.848 741.209 224.962 741.967 223.9 742.356C222.839 742.746 221.673 742.742 220.614 742.344L206.079 736.806C205.495 736.584 204.96 736.246 204.508 735.814C204.055 735.382 203.694 734.864 203.444 734.291C203.195 733.717 203.063 733.099 203.055 732.473C203.048 731.848 203.166 731.227 203.401 730.648L249.595 617.171C249.712 616.883 249.791 616.581 249.831 616.272C256.087 567.846 272.006 543.22 276.736 536.826C277.082 536.356 277.309 535.81 277.399 535.234C277.489 534.658 277.439 534.068 277.254 533.515L276.603 531.564C276.344 530.79 276.29 529.962 276.449 529.161C276.607 528.36 276.972 527.614 277.507 526.997C294.55 507.584 324.256 518.177 324.554 518.286L324.702 518.341L324.796 518.469C358.104 564.149 345.789 712.517 342.982 741.796C342.877 742.896 342.387 743.924 341.597 744.697C340.808 745.471 339.77 745.94 338.668 746.022L318.972 747.539C318.849 747.548 318.728 747.552 318.607 747.552Z" fill="#2F2E41"/>
<path d="M376.98 442.725C376.852 443.288 376.769 443.861 376.731 444.437L331.901 470.299L321.004 464.026L309.388 479.233L327.599 492.213C329.07 493.262 330.842 493.805 332.648 493.761C334.454 493.717 336.197 493.088 337.616 491.969L383.843 455.5C385.929 456.272 388.201 456.391 390.356 455.841C392.512 455.29 394.448 454.097 395.909 452.419C397.369 450.74 398.284 448.658 398.532 446.447C398.78 444.236 398.349 442.002 397.296 440.043C396.243 438.083 394.619 436.49 392.639 435.476C390.659 434.462 388.417 434.075 386.212 434.366C384.006 434.657 381.942 435.613 380.293 437.106C378.644 438.6 377.488 440.559 376.98 442.725Z" fill="#FFB8B8"/>
<path d="M330.402 471.524L315.913 490.302C315.501 490.836 314.978 491.275 314.381 491.589C313.784 491.903 313.126 492.085 312.452 492.122C311.778 492.159 311.104 492.05 310.476 491.803C309.848 491.556 309.281 491.177 308.813 490.691L292.41 473.658C289.69 471.533 287.923 468.416 287.497 464.99C287.071 461.565 288.02 458.11 290.137 455.383C292.254 452.656 295.365 450.88 298.79 450.443C302.214 450.006 305.672 450.945 308.405 453.053L328.977 464.557C329.566 464.886 330.077 465.339 330.475 465.884C330.873 466.428 331.149 467.053 331.285 467.714C331.42 468.375 331.411 469.058 331.259 469.715C331.106 470.372 330.814 470.989 330.402 471.524Z" fill="#CCCCCC"/>
<path d="M274.245 504.149L250.905 499.935C250.24 499.815 249.61 499.553 249.056 499.167C248.502 498.782 248.038 498.281 247.695 497.7C247.352 497.119 247.138 496.471 247.068 495.8C246.998 495.128 247.074 494.45 247.29 493.811L254.856 471.408C255.489 468.013 257.442 465.009 260.287 463.052C263.132 461.096 266.637 460.347 270.033 460.97C273.429 461.594 276.439 463.539 278.403 466.378C280.368 469.218 281.126 472.72 280.512 476.118L279.773 499.676C279.752 500.351 279.586 501.013 279.285 501.617C278.985 502.221 278.558 502.754 278.034 503.178C277.509 503.603 276.899 503.909 276.245 504.077C275.592 504.244 274.909 504.269 274.245 504.149Z" fill="#CCCCCC"/>
<path d="M281.392 407.056C287.979 411.565 296.629 416.2 303.358 411.398C305.463 409.795 306.992 407.554 307.716 405.01C308.44 402.465 308.321 399.755 307.376 397.284C304.154 388.07 295.303 384.014 286.838 380.905C275.834 376.863 263.852 373.648 252.493 376.542C241.133 379.437 231.093 390.436 233.144 401.978C234.793 411.259 243.548 418.983 242.306 428.328C241.055 437.733 230.478 442.683 221.14 444.364C211.802 446.045 201.353 446.585 194.643 453.292C186.082 461.848 188.22 477.141 196.275 486.175C204.33 495.209 216.486 499.303 228.265 502.087C243.871 505.775 260.751 507.714 275.573 501.593C290.395 495.472 301.929 478.995 297.635 463.544C295.822 457.017 291.549 451.502 287.42 446.132C283.291 440.762 279.11 435.147 277.535 428.559C276.222 423.069 277.194 416.695 280.835 412.577C281.497 411.856 281.913 410.944 282.025 409.972C282.136 408.999 281.937 408.016 281.455 407.165L281.392 407.056Z" fill="#2F2E41"/>
<path d="M542.006 776.651H528.716L522.394 725.391H542.008L542.006 776.651Z" fill="#FFB8B8"/>
<path d="M519.223 772.852H544.853V788.989H503.086C503.086 786.87 503.503 784.772 504.314 782.814C505.125 780.856 506.314 779.077 507.812 777.578C509.311 776.08 511.09 774.891 513.048 774.08C515.006 773.269 517.104 772.852 519.223 772.852Z" fill="#2F2E41"/>
<path d="M591.87 776.651H578.58L572.258 725.391H591.872L591.87 776.651Z" fill="#FFB8B8"/>
<path d="M569.088 772.852H594.718V788.989H552.95C552.95 786.87 553.368 784.772 554.179 782.814C554.99 780.856 556.178 779.077 557.677 777.578C559.175 776.08 560.954 774.891 562.912 774.08C564.87 773.269 566.969 772.852 569.088 772.852Z" fill="#2F2E41"/>
<path d="M590.246 623.98C588.815 623.059 587.602 621.836 586.695 620.395C585.787 618.955 585.206 617.333 584.993 615.644C584.78 613.955 584.939 612.24 585.461 610.619C585.982 608.999 586.853 607.512 588.011 606.264L579.26 482.082L604.467 484.527L605.159 606.139C607.126 608.223 608.261 610.957 608.347 613.822C608.433 616.687 607.466 619.484 605.628 621.683C603.789 623.883 601.208 625.331 598.374 625.755C595.539 626.178 592.647 625.547 590.246 623.98Z" fill="#FFB8B8"/>
<path d="M541.378 750.827L526.748 750.129C525.501 750.07 524.325 749.536 523.461 748.636C522.597 747.736 522.11 746.539 522.102 745.291L521.081 597.262C521.076 596.56 521.223 595.864 521.512 595.224C521.8 594.583 522.224 594.012 522.754 593.551C523.284 593.089 523.907 592.747 524.581 592.549C525.255 592.35 525.964 592.299 526.66 592.4L585.189 600.897C586.346 601.058 587.405 601.632 588.172 602.512C588.94 603.393 589.364 604.52 589.366 605.688L596.894 742.852C596.899 743.496 596.776 744.134 596.533 744.731C596.29 745.327 595.932 745.869 595.478 746.326C595.025 746.783 594.486 747.145 593.891 747.393C593.297 747.64 592.66 747.768 592.016 747.768H576.244C575.08 747.772 573.953 747.359 573.069 746.603C572.184 745.846 571.601 744.798 571.425 743.647L561.694 681.786C561.551 680.881 561.087 680.058 560.385 679.468C559.683 678.879 558.792 678.564 557.876 678.581C556.96 678.598 556.081 678.946 555.401 679.56C554.721 680.175 554.287 681.015 554.178 681.924L546.453 746.534C546.308 747.718 545.736 748.808 544.844 749.599C543.952 750.391 542.802 750.829 541.609 750.833C541.533 750.833 541.455 750.831 541.378 750.827Z" fill="#2F2E41"/>
<path d="M551.676 605.694C538.777 598.527 528.699 596.644 523.839 596.159C523.193 596.097 522.567 595.904 521.998 595.592C521.429 595.28 520.929 594.856 520.529 594.345C520.12 593.831 519.82 593.239 519.646 592.605C519.473 591.972 519.43 591.309 519.52 590.658L533.544 486.538C534.352 480.447 536.704 474.663 540.378 469.738C544.052 464.813 548.926 460.91 554.534 458.4C559.963 455.905 565.941 454.839 571.898 455.306C577.855 455.773 583.593 457.757 588.567 461.068C589.048 461.388 589.52 461.714 589.982 462.047C595.71 466.244 600.068 472.043 602.505 478.712C604.943 485.382 605.352 492.624 603.68 499.525C595.08 534.707 592.126 592.384 591.621 603.589C591.581 604.544 591.26 605.466 590.697 606.239C590.134 607.012 589.355 607.6 588.458 607.931C583.167 609.853 577.583 610.848 571.953 610.869C564.862 610.912 557.879 609.13 551.676 605.694Z" fill="#7362E9"/>
<path d="M584.966 523.809C584.376 523.385 583.889 522.833 583.54 522.195C583.191 521.557 582.99 520.849 582.952 520.123L581.105 486.653C580.922 483.337 581.973 480.071 584.056 477.484C586.139 474.897 589.106 473.173 592.384 472.644C595.663 472.115 599.021 472.819 601.812 474.62C604.602 476.421 606.627 479.191 607.496 482.396L615.61 512.32C615.947 513.569 615.775 514.9 615.131 516.022C614.488 517.144 613.426 517.965 612.178 518.305L589.099 524.562C588.398 524.754 587.662 524.786 586.947 524.655C586.232 524.525 585.555 524.236 584.966 523.809Z" fill="#7362E9"/>
<path d="M563.407 444.263C578.111 444.263 590.032 432.343 590.032 417.638C590.032 402.934 578.111 391.014 563.407 391.014C548.703 391.014 536.783 402.934 536.783 417.638C536.783 432.343 548.703 444.263 563.407 444.263Z" fill="#FFB8B8"/>
<path d="M466.926 469.948C467.059 470.532 467.146 471.127 467.186 471.725L513.752 498.589L525.071 492.074L537.137 507.87L512.923 525.128L459.798 483.217C457.631 484.019 455.272 484.142 453.033 483.57C450.795 482.998 448.784 481.759 447.267 480.016C445.75 478.273 444.8 476.11 444.543 473.814C444.286 471.518 444.733 469.198 445.827 467.163C446.92 465.127 448.607 463.473 450.663 462.42C452.72 461.367 455.048 460.965 457.338 461.267C459.629 461.569 461.773 462.562 463.486 464.112C465.199 465.663 466.399 467.698 466.926 469.948Z" fill="#FFB8B8"/>
<path d="M515.416 496.305C515.338 495.582 515.424 494.851 515.667 494.165C515.909 493.48 516.303 492.857 516.818 492.344L540.518 468.639C542.866 466.29 546.001 464.894 549.317 464.72C552.634 464.546 555.897 465.606 558.478 467.695C561.06 469.785 562.776 472.756 563.296 476.036C563.817 479.316 563.104 482.673 561.296 485.458L544.418 511.466C543.713 512.55 542.607 513.31 541.342 513.58C540.077 513.849 538.757 513.605 537.671 512.903L517.612 499.885C517.001 499.491 516.487 498.964 516.107 498.344C515.727 497.725 515.491 497.028 515.416 496.305Z" fill="#7362E9"/>
<path d="M582.249 438.703C577.282 443.994 568.058 441.153 567.411 433.925C567.36 433.364 567.364 432.799 567.422 432.239C567.756 429.037 569.605 426.131 569.162 422.75C569.062 421.909 568.749 421.107 568.252 420.421C564.294 415.12 555.003 422.791 551.267 417.993C548.977 415.051 551.669 410.419 549.911 407.131C547.592 402.791 540.72 404.932 536.411 402.555C531.617 399.911 531.904 392.555 535.06 388.08C538.909 382.624 545.657 379.712 552.321 379.293C558.985 378.873 565.603 380.675 571.825 383.099C578.894 385.854 585.903 389.661 590.254 395.877C595.544 403.436 596.053 413.598 593.407 422.437C591.798 427.814 586.305 434.382 582.249 438.703Z" fill="#2F2E41"/>
<path d="M798.916 790.295H1.08401C0.796513 790.295 0.52079 790.181 0.317499 789.978C0.114207 789.775 0 789.499 0 789.211C0 788.924 0.114207 788.648 0.317499 788.445C0.52079 788.242 0.796513 788.127 1.08401 788.127H798.916C799.203 788.127 799.479 788.242 799.682 788.445C799.886 788.648 800 788.924 800 789.211C800 789.499 799.886 789.775 799.682 789.978C799.479 790.181 799.203 790.295 798.916 790.295Z" fill="#CCCCCC"/>
</g>
<defs>
<clipPath id="clip0_94_5422">
<rect width="800" height="790.296" fill="white"/>
</clipPath>
</defs>
</svg>
