<svg width="800" height="646" viewBox="0 0 800 646" fill="none" xmlns="http://www.w3.org/2000/svg">
<g clip-path="url(#clip0_94_5463)">
<path d="M790.002 572.831C787.072 549.265 772.467 526.047 749.993 518.378C758.856 542.633 758.854 569.242 749.988 593.496C746.534 602.837 741.72 612.868 744.969 622.282C746.99 628.14 751.934 632.622 757.461 635.425C762.988 638.227 769.122 639.563 775.179 640.872L776.372 641.858C785.987 620.145 792.933 596.396 790.002 572.831Z" fill="#F0F0F0"/>
<path d="M749.771 518.823C762.858 533.488 770.993 551.904 773.019 571.454C773.53 575.656 773.375 579.911 772.561 584.064C771.637 588.084 769.653 591.783 766.816 594.777C764.227 597.622 761.249 600.232 759.396 603.657C758.474 605.424 757.936 607.366 757.816 609.355C757.697 611.345 758 613.338 758.705 615.202C760.341 619.894 763.565 623.717 766.847 627.347C770.492 631.378 774.342 635.506 775.891 640.849C776.078 641.497 777.072 641.167 776.885 640.521C774.189 631.225 765.165 625.945 760.862 617.572C758.853 613.665 758.011 609.129 759.893 605.005C761.539 601.398 764.608 598.704 767.255 595.847C770.065 592.966 772.128 589.442 773.262 585.581C774.285 581.483 774.603 577.24 774.203 573.035C773.453 563.554 771.217 554.25 767.577 545.464C763.478 535.413 757.69 526.137 750.463 518.038C750.016 517.537 749.326 518.325 749.771 518.823Z" fill="white"/>
<path d="M772.736 565.12C775.97 564.335 778.82 562.425 780.776 559.733C782.733 557.041 783.668 553.741 783.416 550.422C783.363 549.751 782.317 549.802 782.371 550.475C782.611 553.564 781.739 556.638 779.912 559.142C778.085 561.645 775.424 563.413 772.408 564.126C771.753 564.282 772.085 565.275 772.736 565.12Z" fill="white"/>
<path d="M768.318 593.507C762.477 590.019 758.165 584.458 756.242 577.932C756.052 577.286 755.058 577.615 755.248 578.261C757.262 585.048 761.761 590.826 767.847 594.442C768.428 594.786 768.895 593.849 768.318 593.507Z" fill="white"/>
<path d="M762.507 536.404C761.319 536.969 760.009 537.229 758.696 537.163C757.382 537.096 756.106 536.704 754.981 536.022C754.405 535.671 753.938 536.608 754.51 536.957C755.756 537.704 757.167 538.136 758.618 538.213C760.069 538.289 761.517 538.01 762.835 537.398C762.964 537.351 763.071 537.256 763.132 537.133C763.194 537.011 763.207 536.869 763.168 536.737C763.124 536.606 763.03 536.497 762.906 536.435C762.782 536.372 762.639 536.361 762.507 536.404Z" fill="white"/>
<path d="M681.488 560.468C681.841 560.698 682.195 560.928 682.548 561.166C687.281 564.278 691.754 567.77 695.921 571.607C696.248 571.898 696.575 572.199 696.893 572.499C706.835 581.849 714.955 592.964 720.84 605.279C723.177 610.181 725.138 615.255 726.705 620.454C728.869 627.636 730.645 635.595 734.929 641.469C735.369 642.087 735.847 642.677 736.36 643.235H775.076C775.164 643.191 775.252 643.156 775.341 643.112L776.886 643.182C776.824 642.908 776.754 642.626 776.692 642.352C776.657 642.193 776.613 642.034 776.577 641.875C776.551 641.769 776.524 641.663 776.507 641.566C776.498 641.531 776.489 641.495 776.48 641.469C776.463 641.372 776.436 641.283 776.418 641.195C776.03 639.614 775.629 638.033 775.217 636.451C775.217 636.443 775.217 636.443 775.208 636.434C772.037 624.394 767.833 612.513 761.959 601.649C761.782 601.322 761.605 600.986 761.411 600.659C758.736 595.777 755.666 591.121 752.233 586.738C750.345 584.344 748.337 582.048 746.217 579.857C740.729 574.207 734.386 569.456 727.421 565.777C713.535 558.445 697.459 555.636 682.618 560.115C682.239 560.23 681.868 560.345 681.488 560.468Z" fill="#F0F0F0"/>
<path d="M681.576 560.959C700.855 564.788 718.437 574.594 731.826 588.985C734.763 592.032 737.202 595.523 739.052 599.329C740.734 603.095 741.378 607.243 740.915 611.341C740.561 615.172 739.754 619.049 740.337 622.899C740.664 624.865 741.404 626.739 742.507 628.4C743.61 630.06 745.051 631.469 746.736 632.533C750.867 635.294 755.743 636.406 760.55 637.328C765.886 638.352 771.446 639.33 775.899 642.664C776.439 643.068 777.034 642.207 776.495 641.803C768.746 636.004 758.362 637.221 749.885 633.127C745.929 631.216 742.525 628.102 741.546 623.676C740.689 619.805 741.517 615.807 741.909 611.931C742.419 607.94 741.944 603.884 740.525 600.118C738.875 596.23 736.575 592.651 733.723 589.534C727.416 582.416 720.029 576.333 711.833 571.51C702.509 565.952 692.303 562.031 681.656 559.915C680.997 559.785 680.921 560.829 681.576 560.959Z" fill="white"/>
<path d="M727.788 584.098C729.897 581.523 731.023 578.283 730.964 574.956C730.905 571.628 729.665 568.43 727.466 565.932C727.019 565.428 726.215 566.099 726.663 566.604C728.715 568.926 729.869 571.905 729.918 575.004C729.967 578.102 728.906 581.116 726.927 583.502C726.498 584.02 727.361 584.613 727.788 584.098Z" fill="white"/>
<path d="M741.35 609.424C734.586 610.156 727.795 608.312 722.331 604.259C721.79 603.857 721.195 604.718 721.735 605.119C727.429 609.326 734.5 611.231 741.537 610.454C742.208 610.379 742.017 609.35 741.35 609.424Z" fill="white"/>
<path d="M702.33 567.328C701.722 568.494 700.833 569.491 699.744 570.228C698.655 570.966 697.399 571.422 696.091 571.554C695.42 571.62 695.611 572.65 696.278 572.584C697.723 572.431 699.109 571.926 700.314 571.114C701.519 570.301 702.506 569.206 703.191 567.924C703.265 567.809 703.293 567.669 703.268 567.534C703.244 567.399 703.169 567.278 703.058 567.196C702.944 567.118 702.803 567.088 702.667 567.112C702.531 567.137 702.41 567.215 702.33 567.328Z" fill="white"/>
<path d="M406.148 152.768H402.616V56.0041C402.616 48.6496 401.168 41.367 398.353 34.5723C395.539 27.7776 391.413 21.6037 386.213 16.4033C381.013 11.2028 374.839 7.07755 368.044 4.26307C361.249 1.4486 353.967 5.80013e-06 346.612 1.78588e-10H141.606C126.753 -3.74832e-05 112.508 5.90033 102.005 16.4031C91.502 26.9059 85.6016 41.1507 85.6016 56.0039V586.856C85.6015 601.709 91.5019 615.954 102.005 626.457C112.507 636.96 126.752 642.86 141.606 642.86H346.612C361.465 642.86 375.71 636.96 386.213 626.457C396.716 615.954 402.616 601.71 402.616 586.856V221.646H406.148L406.148 152.768Z" fill="#E6E6E6"/>
<path d="M348.872 14.5703H322.112C323.342 17.5874 323.812 20.8609 323.48 24.1023C323.147 27.3437 322.023 30.4536 320.205 33.1581C318.387 35.8625 315.933 38.0785 313.057 39.6107C310.181 41.143 306.973 41.9446 303.715 41.9449H186.269C183.011 41.9446 179.802 41.143 176.927 39.6107C174.051 38.0784 171.596 35.8625 169.779 33.158C167.961 30.4536 166.837 27.3437 166.504 24.1023C166.172 20.8608 166.642 17.5874 167.872 14.5703H142.878C137.386 14.5703 131.947 15.6521 126.873 17.7539C121.799 19.8557 117.188 22.9363 113.305 26.82C109.421 30.7036 106.34 35.3142 104.239 40.3884C102.137 45.4626 101.055 50.9011 101.055 56.3935V586.467C101.055 591.959 102.137 597.398 104.238 602.472C106.34 607.546 109.421 612.157 113.305 616.04C117.188 619.924 121.799 623.005 126.873 625.106C131.947 627.208 137.386 628.29 142.878 628.29H348.872C354.364 628.29 359.803 627.208 364.877 625.106C369.951 623.005 374.562 619.924 378.445 616.04C382.329 612.157 385.41 607.546 387.511 602.472C389.613 597.398 390.695 591.959 390.695 586.467V56.3935C390.695 50.9012 389.613 45.4627 387.511 40.3884C385.41 35.3142 382.329 30.7037 378.445 26.82C374.562 22.9364 369.951 19.8557 364.877 17.7539C359.803 15.6521 354.364 14.5703 348.872 14.5703Z" fill="white"/>
<path d="M274.514 156.97H201.499V163.75H274.514V156.97Z" fill="#7362E9"/>
<path d="M328.758 180.426H201.499V187.206H328.758V180.426Z" fill="#E6E6E6"/>
<path d="M328.633 203.881H201.499V210.662H328.633V203.881Z" fill="#E6E6E6"/>
<path d="M186.368 157.07H132.124V211.314H186.368V157.07Z" fill="#7362E9"/>
<path d="M274.514 299.36H201.499V306.141H274.514V299.36Z" fill="#7362E9"/>
<path d="M328.758 322.816H201.499V329.597H328.758V322.816Z" fill="#E6E6E6"/>
<path d="M328.633 346.272H201.499V353.052H328.633V346.272Z" fill="#E6E6E6"/>
<path d="M186.368 299.461H132.124V353.705H186.368V299.461Z" fill="#7362E9"/>
<path d="M274.514 441.751H201.499V448.531H274.514V441.751Z" fill="#7362E9"/>
<path d="M328.758 465.207H201.499V471.987H328.758V465.207Z" fill="#E6E6E6"/>
<path d="M328.633 488.662H201.499V495.443H328.633V488.662Z" fill="#E6E6E6"/>
<path d="M186.368 441.851H132.124V496.095H186.368V441.851Z" fill="#7362E9"/>
<path d="M640.875 632.372L630.062 632.968L622.62 591.544L638.579 590.666L640.875 632.372Z" fill="#FFB6B6"/>
<path d="M644.211 642.702L609.345 644.622L609.321 644.181C609.123 640.582 610.362 637.052 612.767 634.367C615.172 631.682 618.545 630.062 622.144 629.863L643.439 628.691L644.211 642.702Z" fill="#2F2E41"/>
<path d="M414.175 465.77L412.776 455.031L453.53 444.523L455.595 460.372L414.175 465.77Z" fill="#FFB6B6"/>
<path d="M404.123 469.865L399.611 435.24L400.049 435.183C403.623 434.717 407.236 435.69 410.093 437.888C412.95 440.086 414.817 443.329 415.283 446.903L418.039 468.052L404.123 469.865Z" fill="#2F2E41"/>
<path d="M550.872 397.901C551.344 398.028 551.805 398.191 552.252 398.39L589.311 375.03L588.914 364.396L604.886 361.7L607.417 380.459C607.622 381.974 607.329 383.515 606.583 384.85C605.837 386.185 604.679 387.242 603.281 387.862L557.729 408.082C557.483 409.949 556.676 411.697 555.413 413.093C554.15 414.49 552.492 415.469 550.659 415.9C548.826 416.332 546.905 416.195 545.152 415.508C543.399 414.821 541.897 413.616 540.845 412.054C539.793 410.493 539.241 408.648 539.264 406.765C539.286 404.882 539.881 403.051 540.969 401.514C542.058 399.978 543.588 398.809 545.357 398.164C547.126 397.519 549.049 397.427 550.872 397.901Z" fill="#FFB6B6"/>
<path d="M587.618 373.549C587.176 373.187 586.818 372.734 586.567 372.22C586.316 371.707 586.179 371.146 586.165 370.575L585.672 350.631C585.172 347.752 585.833 344.792 587.512 342.4C589.19 340.008 591.749 338.38 594.626 337.871C597.504 337.362 600.465 338.015 602.862 339.686C605.259 341.358 606.896 343.911 607.413 346.787L613.692 365.791C613.872 366.334 613.932 366.908 613.869 367.476C613.806 368.044 613.621 368.591 613.328 369.081C613.034 369.571 612.638 369.992 612.168 370.315C611.697 370.639 611.161 370.857 610.599 370.954L590.819 374.392C590.257 374.49 589.679 374.465 589.127 374.32C588.574 374.174 588.06 373.911 587.618 373.549Z" fill="#7362E9"/>
<path d="M618.429 318.43C633.284 318.43 645.326 306.388 645.326 291.533C645.326 276.679 633.284 264.637 618.429 264.637C603.574 264.637 591.532 276.679 591.532 291.533C591.532 306.388 603.574 318.43 618.429 318.43Z" fill="#2F2E41"/>
<path d="M627.838 274.354C633.985 274.354 638.968 269.371 638.968 263.224C638.968 257.078 633.985 252.095 627.838 252.095C621.692 252.095 616.709 257.078 616.709 263.224C616.709 269.371 621.692 274.354 627.838 274.354Z" fill="#2F2E41"/>
<path d="M642.677 257.196C642.677 254.445 641.658 251.792 639.817 249.747C637.976 247.703 635.443 246.413 632.707 246.127C633.092 246.087 633.479 246.067 633.866 246.067C636.818 246.067 639.649 247.239 641.736 249.326C643.823 251.414 644.996 254.244 644.996 257.196C644.996 260.148 643.823 262.979 641.736 265.066C639.649 267.153 636.818 268.326 633.866 268.326C633.479 268.326 633.092 268.306 632.707 268.266C635.443 267.979 637.976 266.689 639.817 264.645C641.658 262.601 642.677 259.947 642.677 257.196Z" fill="#2F2E41"/>
<path d="M618.417 320.778C627.81 320.778 635.425 313.163 635.425 303.77C635.425 294.377 627.81 286.763 618.417 286.763C609.024 286.763 601.41 294.377 601.41 303.77C601.41 313.163 609.024 320.778 618.417 320.778Z" fill="#FFB8B8"/>
<path d="M646.728 421.129C646.728 421.129 645.918 441.376 642.679 451.904C639.439 462.433 645.108 611.45 642.274 615.094C639.439 618.739 626.076 617.524 626.076 617.524L613.68 539.887C613.68 539.887 611.498 457.573 581.533 455.549C551.567 453.524 434.54 464.862 434.54 464.862L432.111 448.26L494.876 434.492C494.876 434.492 552.377 414.65 583.963 419.914C615.548 425.178 646.728 421.129 646.728 421.129Z" fill="#2F2E41"/>
<path d="M643.083 323.134C646.322 320.704 654.421 323.944 654.421 323.944L663.33 350.265C663.33 350.265 658.875 372.941 654.826 385.494C650.777 398.048 642.976 453.542 644.595 455.971C646.215 458.401 618.382 438.541 601.779 432.467C585.177 426.393 581.532 419.509 581.532 419.509C581.532 419.509 599.754 393.593 593.68 381.445C587.606 369.297 592.465 355.529 592.465 355.529L590.036 341.761L603.804 334.067C603.804 334.067 639.843 325.564 643.083 323.134Z" fill="#7362E9"/>
<path d="M615.301 296.96C625.545 296.96 633.85 291.977 633.85 285.83C633.85 279.683 625.545 274.701 615.301 274.701C605.056 274.701 596.752 279.683 596.752 285.83C596.752 291.977 605.056 296.96 615.301 296.96Z" fill="#2F2E41"/>
<path d="M721.893 330.216C721.692 330.662 721.526 331.122 721.397 331.594L679.842 345.458L671.866 338.412L659.66 349.059L672.567 362.905C673.61 364.023 674.987 364.774 676.492 365.043C677.998 365.312 679.55 365.085 680.915 364.397L725.423 341.972C727.023 342.965 728.887 343.448 730.768 343.356C732.648 343.265 734.457 342.602 735.952 341.458C737.447 340.313 738.558 338.74 739.138 336.949C739.717 335.157 739.737 333.232 739.196 331.428C738.654 329.625 737.577 328.029 736.106 326.853C734.635 325.678 732.842 324.977 730.963 324.846C729.085 324.714 727.211 325.157 725.591 326.117C723.971 327.076 722.681 328.506 721.893 330.216Z" fill="#FFB6B6"/>
<path d="M678.392 346.22L663.199 359.343C662.767 359.716 662.259 359.992 661.711 360.152C661.162 360.311 660.586 360.351 660.021 360.267C659.456 360.184 658.915 359.98 658.436 359.668C657.957 359.357 657.551 358.947 657.245 358.464L646.523 341.564C644.625 339.341 643.685 336.456 643.911 333.542C644.136 330.628 645.508 327.923 647.726 326.019C649.943 324.115 652.825 323.168 655.74 323.386C658.655 323.603 661.364 324.968 663.274 327.181L678.389 340.201C678.822 340.574 679.169 341.036 679.407 341.555C679.645 342.075 679.769 342.639 679.769 343.21C679.769 343.781 679.647 344.346 679.409 344.865C679.171 345.385 678.825 345.847 678.392 346.22Z" fill="#7362E9"/>
<path d="M798.948 645.281H1.05164C0.773226 645.28 0.506497 645.169 0.309913 644.972C0.113329 644.775 0.00292969 644.508 0.00292969 644.229C0.00292969 643.951 0.113329 643.684 0.309913 643.487C0.506497 643.29 0.773226 643.178 1.05164 643.178H798.948C799.226 643.178 799.494 643.288 799.691 643.486C799.888 643.683 799.999 643.95 799.999 644.229C799.999 644.508 799.888 644.776 799.691 644.973C799.494 645.17 799.226 645.281 798.948 645.281Z" fill="#3F3D56"/>
</g>
<defs>
<clipPath id="clip0_94_5463">
<rect width="800" height="645.281" fill="white"/>
</clipPath>
</defs>
</svg>
