<svg width="800" height="1177" viewBox="0 0 800 1177" fill="none" xmlns="http://www.w3.org/2000/svg">
<g clip-path="url(#clip0_94_5504)">
<path d="M573.908 495.166C573.908 495.166 577.792 547.604 577.792 549.546C577.792 551.488 550.602 685.497 550.602 685.497C550.602 685.497 511.759 759.299 550.602 757.357C589.445 755.415 577.792 687.439 577.792 687.439L618.577 574.794L601.098 495.166L573.908 495.166Z" fill="#FFB8B8"/>
<path d="M766.182 1081.7L772.008 1124.43L731.222 1128.31L737.049 1075.87L766.182 1081.7Z" fill="#FFB8B8"/>
<path d="M638 1081.7L632.172 1124.43L672.958 1128.31L667.131 1075.87L638 1081.7Z" fill="#FFB8B8"/>
<path d="M593.328 681.613L583.618 695.208C583.618 695.208 577.791 753.473 583.618 772.895C589.444 792.316 601.097 881.655 601.097 887.482C601.097 893.308 603.039 897.193 601.097 899.135C599.155 901.077 601.097 920.498 601.097 920.498V930.209L626.345 1073.93C626.345 1073.93 610.808 1091.41 622.461 1091.41C634.114 1091.41 676.841 1091.41 674.899 1071.99L671.015 1070.04C671.015 1070.04 665.188 941.862 667.131 936.036C669.073 930.209 671.015 893.308 671.015 893.308L688.494 774.837L721.511 889.424L729.28 1060.33C729.28 1060.33 721.511 1079.76 729.28 1083.64C737.048 1087.52 770.065 1101.12 772.007 1081.7C773.949 1062.28 783.66 893.308 783.66 885.54C783.66 877.771 779.776 757.357 779.776 757.357C779.776 757.357 781.718 737.936 783.66 734.051C785.602 730.167 781.718 726.283 783.66 720.456C785.602 714.63 779.776 695.208 779.776 695.208L692.379 671.902L593.328 681.613Z" fill="#2F2E41"/>
<path d="M661.305 1116.66C661.305 1116.66 671.015 1106.95 657.42 1106.95C648.692 1107.12 640.096 1109.11 632.172 1112.77L622.461 1147.73C622.461 1147.73 582.647 1179.78 627.317 1175.89C671.986 1172.01 678.784 1171.04 680.726 1167.15C682.089 1164.43 679.625 1135.87 678.035 1119.08C677.964 1118.27 677.676 1117.5 677.202 1116.84C676.728 1116.18 676.085 1115.67 675.341 1115.34C674.597 1115.02 673.78 1114.9 672.975 1115C672.17 1115.11 671.408 1115.42 670.768 1115.92C669.505 1117.09 667.882 1117.8 666.164 1117.94C664.446 1118.07 662.733 1117.62 661.305 1116.66Z" fill="#2F2E41"/>
<path d="M744.817 1116.66C744.817 1116.66 735.107 1106.95 748.702 1106.95C757.43 1107.12 766.026 1109.11 773.95 1112.77L783.66 1147.73C783.66 1147.73 823.475 1179.78 778.805 1175.89C734.136 1172.01 721.512 1171.04 719.569 1167.15C718.217 1164.45 723.46 1136.3 726.767 1119.46C726.949 1118.53 727.365 1117.67 727.977 1116.94C728.588 1116.22 729.374 1115.66 730.26 1115.33C731.147 1115 732.104 1114.89 733.041 1115.03C733.977 1115.17 734.863 1115.55 735.613 1116.13C736.876 1117.22 738.462 1117.86 740.126 1117.95C741.79 1118.05 743.438 1117.59 744.817 1116.66Z" fill="#2F2E41"/>
<path d="M601.097 328.14C601.097 328.14 608.866 366.983 608.866 372.81C608.866 378.636 641.882 396.116 641.882 396.116L678.783 349.504C678.783 349.504 655.477 316.487 655.477 308.719L601.097 328.14Z" fill="#FFB8B8"/>
<path d="M630.23 378.636C630.23 378.636 613.302 374.131 608.171 366.673C608.171 366.673 554.485 419.422 554.485 429.133L597.213 504.877C597.213 504.877 597.213 532.067 601.097 534.009C604.982 535.951 601.097 534.009 601.097 541.778C601.097 549.546 589.444 600.042 593.329 607.811C597.213 615.58 601.097 609.753 597.213 621.406C593.329 633.059 583.618 695.208 583.618 695.208C583.618 695.208 618.577 683.555 669.073 702.977C719.569 722.399 779.776 695.208 779.776 695.208C779.776 695.208 764.239 660.249 768.123 648.597C772.007 636.944 758.412 615.58 758.412 615.58L748.701 436.901C748.701 436.901 762.296 357.273 752.586 353.388L733.164 345.62L670.968 337.976C670.968 337.976 655.478 376.694 630.23 378.636Z" fill="#7362E9"/>
<path d="M573.907 415.538L554.485 429.133C554.485 429.133 544.774 458.265 554.485 471.86C564.196 485.455 568.08 504.877 568.08 504.877L606.923 500.993L573.907 415.538Z" fill="#7362E9"/>
<path d="M580.148 279.57V102.489C580.148 89.0303 577.497 75.703 572.346 63.2684C567.196 50.8338 559.646 39.5355 550.129 30.0185C540.612 20.5015 529.314 12.9521 516.879 7.80156C504.445 2.65098 491.118 1.06144e-05 477.659 2.86873e-10H102.49C89.0305 -3.18421e-05 75.7031 2.65091 63.2685 7.80145C50.834 12.952 39.5356 20.5013 30.0186 30.0182C20.5015 39.5352 12.9522 50.8336 7.80162 63.2681C2.65102 75.7027 2.75967e-05 89.03 0 102.489V1073.97C-1.28617e-05 1101.15 10.7979 1127.22 30.0184 1146.44C49.2388 1165.66 75.3074 1176.46 102.489 1176.46H477.658C504.84 1176.46 530.908 1165.66 550.129 1146.44C569.349 1127.22 580.148 1101.15 580.148 1073.97V405.619L580.148 279.57Z" fill="#E6E6E6"/>
<path d="M481.793 26.6643H432.821C435.073 32.1857 435.933 38.1762 435.325 44.1081C434.716 50.04 432.658 55.7312 429.332 60.6805C426.006 65.6297 421.514 69.685 416.251 72.4891C410.989 75.2932 405.117 76.7601 399.154 76.7606H184.225C178.262 76.7602 172.39 75.2932 167.128 72.4891C161.865 69.685 157.373 65.6297 154.047 60.6805C150.721 55.7312 148.663 50.04 148.054 44.1081C147.446 38.1761 148.306 32.1856 150.558 26.6642H104.818C84.5188 26.6642 65.0511 34.728 50.6975 49.0816C36.3438 63.4352 28.2801 82.9029 28.28 103.202V1073.25C28.28 1093.55 36.3438 1113.02 50.6974 1127.37C65.051 1141.73 84.5187 1149.79 104.818 1149.79H481.793C491.844 1149.79 501.797 1147.81 511.083 1143.97C520.369 1140.12 528.806 1134.48 535.914 1127.38C543.021 1120.27 548.659 1111.83 552.505 1102.54C556.351 1093.26 558.331 1083.31 558.331 1073.25V103.202C558.331 93.1509 556.351 83.1983 552.505 73.9123C548.659 64.6263 543.021 56.1888 535.914 49.0816C528.806 41.9744 520.369 36.3367 511.083 32.4903C501.797 28.6439 491.844 26.6642 481.793 26.6643Z" fill="white"/>
<path d="M531.573 460.236H65.5878C63.3 460.234 61.1067 459.324 59.4889 457.706C57.8712 456.088 56.9612 453.895 56.9585 451.607V336.016C56.9612 333.728 57.8712 331.535 59.4889 329.917C61.1067 328.299 63.3 327.389 65.5878 327.386H531.573C533.861 327.389 536.055 328.299 537.672 329.917C539.29 331.535 540.2 333.728 540.203 336.016V451.607C540.2 453.895 539.29 456.088 537.672 457.706C536.055 459.324 533.861 460.234 531.573 460.236ZM65.5878 330.838C64.2151 330.84 62.899 331.386 61.9283 332.356C60.9576 333.327 60.4117 334.643 60.4102 336.016V451.607C60.4117 452.98 60.9576 454.296 61.9283 455.267C62.899 456.237 64.2151 456.783 65.5878 456.785H531.573C532.946 456.783 534.262 456.237 535.233 455.267C536.204 454.296 536.75 452.98 536.751 451.607V336.016C536.75 334.643 536.204 333.327 535.233 332.356C534.262 331.386 532.946 330.84 531.573 330.838L65.5878 330.838Z" fill="#E6E6E6"/>
<path d="M137.993 424.528C157.406 424.528 173.144 408.79 173.144 389.376C173.144 369.962 157.406 354.225 137.993 354.225C118.579 354.225 102.841 369.962 102.841 389.376C102.841 408.79 118.579 424.528 137.993 424.528Z" fill="#E6E6E6"/>
<path d="M219.175 365.942C217.623 365.944 216.136 366.563 215.039 367.661C213.943 368.76 213.327 370.248 213.327 371.8C213.327 373.353 213.943 374.841 215.039 375.94C216.136 377.038 217.623 377.656 219.175 377.659H495.365C496.135 377.66 496.898 377.51 497.61 377.216C498.322 376.922 498.969 376.491 499.514 375.947C500.059 375.402 500.491 374.756 500.786 374.045C501.082 373.333 501.233 372.571 501.233 371.8C501.233 371.03 501.082 370.268 500.786 369.556C500.491 368.845 500.059 368.199 499.514 367.654C498.969 367.11 498.322 366.679 497.61 366.385C496.898 366.091 496.135 365.941 495.365 365.942H219.175Z" fill="#E6E6E6"/>
<path d="M219.176 401.093C217.622 401.093 216.132 401.71 215.033 402.809C213.934 403.908 213.317 405.398 213.317 406.952C213.317 408.505 213.934 409.996 215.033 411.094C216.132 412.193 217.622 412.81 219.176 412.81H338.021C339.575 412.81 341.065 412.193 342.164 411.094C343.262 409.996 343.88 408.505 343.88 406.952C343.88 405.398 343.262 403.908 342.164 402.809C341.065 401.71 339.575 401.093 338.021 401.093H219.176Z" fill="#E6E6E6"/>
<path d="M531.573 835.265H65.5878C63.3 835.262 61.1067 834.352 59.4889 832.735C57.8712 831.117 56.9612 828.924 56.9585 826.636V711.045C56.9612 708.757 57.8712 706.563 59.4889 704.946C61.1067 703.328 63.3 702.418 65.5878 702.415H531.573C533.861 702.418 536.055 703.328 537.672 704.946C539.29 706.563 540.2 708.757 540.203 711.045V826.636C540.2 828.924 539.29 831.117 537.672 832.735C536.055 834.352 533.861 835.262 531.573 835.265ZM65.5878 705.867C64.2151 705.869 62.899 706.414 61.9283 707.385C60.9576 708.356 60.4117 709.672 60.4102 711.045V826.636C60.4117 828.009 60.9576 829.325 61.9283 830.295C62.899 831.266 64.2151 831.812 65.5878 831.814H531.573C532.946 831.812 534.262 831.266 535.233 830.295C536.204 829.325 536.75 828.009 536.751 826.636V711.045C536.75 709.672 536.204 708.356 535.233 707.385C534.262 706.414 532.946 705.868 531.573 705.867L65.5878 705.867Z" fill="#E6E6E6"/>
<path d="M137.993 799.556C157.406 799.556 173.144 783.818 173.144 764.404C173.144 744.991 157.406 729.253 137.993 729.253C118.579 729.253 102.841 744.991 102.841 764.404C102.841 783.818 118.579 799.556 137.993 799.556Z" fill="#E6E6E6"/>
<path d="M219.176 740.97C217.622 740.97 216.132 741.587 215.033 742.686C213.934 743.785 213.317 745.275 213.317 746.829C213.317 748.383 213.934 749.873 215.033 750.971C216.132 752.07 217.622 752.687 219.176 752.687H495.365C496.135 752.689 496.898 752.538 497.61 752.244C498.322 751.95 498.969 751.519 499.514 750.975C500.059 750.431 500.492 749.784 500.787 749.073C501.082 748.362 501.234 747.599 501.234 746.829C501.234 746.059 501.082 745.296 500.787 744.585C500.492 743.873 500.059 743.227 499.514 742.683C498.969 742.138 498.322 741.707 497.61 741.413C496.898 741.119 496.135 740.969 495.365 740.97H219.176Z" fill="#E6E6E6"/>
<path d="M219.175 776.122C217.623 776.125 216.136 776.743 215.039 777.841C213.943 778.94 213.327 780.429 213.327 781.981C213.327 783.533 213.943 785.021 215.039 786.12C216.136 787.218 217.623 787.837 219.175 787.839H338.021C339.575 787.839 341.065 787.222 342.163 786.123C343.262 785.025 343.879 783.535 343.879 781.981C343.879 780.427 343.262 778.937 342.163 777.838C341.065 776.739 339.575 776.122 338.021 776.122H219.175Z" fill="#E6E6E6"/>
<path d="M414.69 526.213H411.457V655.615H414.69V526.213Z" fill="white"/>
<path d="M534.117 528.46C532.546 527.01 530.485 526.207 528.346 526.213H62.3577C60.0699 526.218 57.8772 527.13 56.2594 528.747C54.6417 530.365 53.7306 532.558 53.7256 534.846V650.442C53.7306 652.73 54.6417 654.922 56.2594 656.54C57.8772 658.158 60.0699 659.069 62.3577 659.074H528.346C530.633 659.068 532.823 658.156 534.438 656.538C536.053 654.92 536.961 652.728 536.963 650.442V534.846C536.964 533.641 536.712 532.45 536.222 531.349C535.731 530.249 535.014 529.265 534.117 528.46ZM533.519 650.442C533.515 651.813 532.969 653.126 532 654.095C531.03 655.064 529.717 655.611 528.346 655.615H62.3577C60.9862 655.613 59.6712 655.068 58.7014 654.098C57.7316 653.128 57.1862 651.813 57.1849 650.442V534.846C57.1841 534.166 57.3175 533.493 57.5772 532.865C57.8369 532.237 58.2178 531.667 58.6983 531.186C59.1788 530.706 59.7494 530.325 60.3773 530.065C61.0052 529.805 61.6782 529.672 62.3577 529.673H528.346C529.718 529.674 531.033 530.219 532.003 531.189C532.973 532.159 533.518 533.474 533.519 534.846L533.519 650.442Z" fill="#E6E6E6"/>
<path d="M210.866 587.399H99.5532C97.9991 587.399 96.5086 588.016 95.4097 589.115C94.3107 590.214 93.6934 591.704 93.6934 593.259C93.6934 594.813 94.3107 596.303 95.4097 597.402C96.5086 598.501 97.9991 599.118 99.5532 599.118H210.866C212.42 599.118 213.91 598.501 215.009 597.402C216.108 596.303 216.725 594.813 216.725 593.259C216.725 591.704 216.108 590.214 215.009 589.115C213.91 588.016 212.42 587.399 210.866 587.399Z" fill="#E6E6E6"/>
<path d="M491.249 581.644H479.933V580.027C479.933 579.17 479.592 578.347 478.986 577.741C478.38 577.135 477.557 576.794 476.7 576.794C475.843 576.794 475.02 577.135 474.414 577.741C473.808 578.347 473.467 579.17 473.467 580.027V581.644H462.152C461.937 581.644 461.732 581.729 461.58 581.88C461.428 582.032 461.343 582.238 461.343 582.452C461.343 582.666 461.428 582.872 461.58 583.023C461.732 583.175 461.937 583.26 462.152 583.26H491.249C491.463 583.26 491.668 583.175 491.82 583.023C491.972 582.872 492.057 582.666 492.057 582.452C492.057 582.238 491.972 582.032 491.82 581.88C491.668 581.729 491.463 581.644 491.249 581.644Z" fill="white"/>
<path d="M618.577 341.736C646.465 341.736 669.073 319.128 669.073 291.24C669.073 263.352 646.465 240.744 618.577 240.744C590.689 240.744 568.081 263.352 568.081 291.24C568.081 319.128 590.689 341.736 618.577 341.736Z" fill="#FFB8B8"/>
<path d="M580.023 237.874L571.264 234.367C571.264 234.367 589.578 214.204 615.06 215.957L607.893 208.067C607.893 208.067 625.411 201.054 641.337 219.464C649.709 229.141 659.395 240.517 665.434 253.332H674.814L670.899 261.952L684.602 270.573L670.537 269.024C671.869 276.466 671.413 284.119 669.207 291.35L669.584 298.164C669.584 298.164 653.281 272.94 653.281 269.434V278.2C653.281 278.2 644.522 270.31 644.522 265.05L639.744 271.187L637.355 261.544L607.893 271.187L612.67 263.297L594.356 265.927L601.523 256.284C601.523 256.284 580.819 267.68 580.023 277.324C579.226 286.967 568.875 299.24 568.875 299.24L564.097 290.474C564.097 290.474 556.931 251.024 580.023 237.874Z" fill="#2F2E41"/>
<path d="M717.627 433.017C717.627 433.017 706.38 461.937 708.73 490.551C709.159 495.674 710.884 500.604 713.743 504.877L575.957 570.291C575.957 570.291 513.7 576.737 529.238 603.927C544.775 631.117 601.098 590.332 601.098 590.332C601.098 590.332 748.702 568.968 760.355 547.605C772.007 526.241 779.776 436.902 779.776 436.902L717.627 433.017Z" fill="#FFB8B8"/>
<path d="M723.454 353.388H752.586C752.586 353.388 773.95 357.273 779.776 396.116C785.603 434.959 791.429 444.67 785.603 444.67C779.776 444.67 709.858 442.728 709.858 440.785C709.858 438.843 723.454 353.388 723.454 353.388Z" fill="#7362E9"/>
<path d="M536.678 533.381V649.264C536.678 651.555 536.198 653.753 535.344 655.375C534.491 656.997 533.333 657.911 532.125 657.917H409.742C407.533 657.917 405.742 656.126 405.742 653.917V592.449V530.98C405.742 528.771 407.533 526.98 409.742 526.98H532.887C534.304 526.98 535.66 527.723 536.073 529.079C536.151 529.337 536.223 529.603 536.287 529.876C536.546 530.979 536.679 532.174 536.678 533.381Z" fill="#7362E9"/>
<path d="M473.061 618.041C470.993 619.918 467.809 619.918 465.741 618.013L465.442 617.741C451.156 604.816 441.823 596.353 442.177 585.796C442.34 581.17 444.707 576.734 448.544 574.122C455.728 569.224 464.598 571.51 469.388 577.115C474.177 571.51 483.047 569.197 490.231 574.122C494.068 576.734 496.435 581.17 496.598 585.796C496.979 596.353 487.619 604.816 473.333 617.796L473.061 618.041Z" fill="white"/>
</g>
<defs>
<clipPath id="clip0_94_5504">
<rect width="800" height="1176.46" fill="white"/>
</clipPath>
</defs>
</svg>
