<svg width="800" height="800" viewBox="0 0 800 800" fill="none" xmlns="http://www.w3.org/2000/svg">
<g clip-path="url(#clip0_236_1674)">
<path d="M747.597 304.46L664.765 218.844C656.216 210.011 644.45 205.026 632.176 205.026C619.876 205.026 608.096 210.011 599.548 218.844L563.645 255.973L387.282 176.223C384.459 78.4561 304.475 0 206.055 0C105.811 0 24.541 81.2779 24.541 181.518C24.541 253.769 66.881 315.996 128.044 345.214V687.604C128.044 701.744 132.496 715.539 140.838 726.999L186.671 790.12C191.178 796.322 198.384 800 206.055 800C213.727 800 220.918 796.322 225.424 790.12L271.271 726.986C279.586 715.538 284.065 701.744 284.065 687.604V652.311C284.065 643.405 279.408 635.164 271.766 630.581L233.876 607.838C232.465 606.981 231.589 605.455 231.589 603.797C231.589 602.154 232.465 600.626 233.876 599.769L271.766 577.016C279.408 572.444 284.065 564.196 284.065 555.298V533.772C284.065 524.865 279.408 516.625 271.766 512.043L233.876 489.301C232.465 488.445 231.589 486.917 231.589 485.259C231.589 483.615 232.465 482.074 233.876 481.231L271.766 458.479C279.408 453.907 284.065 445.658 284.065 436.76V345.212C330.558 322.987 366.076 281.637 380.473 231.35L524.483 296.465L516.77 304.457C498.867 322.948 488.867 347.685 488.867 373.416V691.617C488.867 714.668 507.537 733.356 530.591 733.356H733.736C756.79 733.356 775.46 714.668 775.46 691.617V373.433C775.459 347.686 765.473 322.952 747.597 304.46ZM206.055 185.22C171.262 185.22 143.058 157.028 143.058 122.241C143.058 87.4563 171.263 59.2741 206.055 59.2741C240.833 59.2741 269.012 87.4547 269.012 122.241C269.012 122.409 268.971 122.568 268.971 122.721L216.987 99.2149C203.646 93.1536 187.921 99.0979 181.894 112.451C175.852 125.804 181.783 141.511 195.127 147.545L246.002 170.548C235.108 179.578 221.314 185.22 206.055 185.22ZM632.176 357.98C612.808 357.98 596.643 344.786 591.822 326.927L605.081 332.911C608.603 334.517 612.342 335.279 615.985 335.279C626.093 335.279 635.752 329.478 640.163 319.673C646.217 306.321 640.259 290.613 626.943 284.579L613.685 278.583C619.288 275.813 625.492 274.115 632.176 274.115C655.339 274.115 674.093 292.905 674.093 316.048C674.093 339.219 655.34 357.98 632.176 357.98Z" fill="#68548E"/>
</g>
<defs>
<clipPath id="clip0_236_1674">
<rect width="800" height="800" fill="white"/>
</clipPath>
</defs>
</svg>
